<svg width="260" height="20" viewBox="0 0 260 20" fill="none" xmlns="http://www.w3.org/2000/svg">
<path fill-rule="evenodd" clip-rule="evenodd" d="M25.8766 17.5784C23.3744 15.0981 23.3745 11.0769 25.8767 8.59664L32.673 1.8602C34.7883 -0.236476 38.0146 -0.560742 40.4736 0.887405C41.2342 1.33533 41.2275 2.36286 40.602 2.98293C39.9764 3.603 38.9552 3.54963 38.1061 3.30347C37.0188 2.98825 35.796 3.25565 34.9384 4.10564L28.1421 10.8421C26.891 12.0822 26.891 14.0928 28.1421 15.333C29.3932 16.5732 31.4218 16.5732 32.673 15.333L46.2654 1.86029C48.7676 -0.619962 52.8246 -0.61997 55.3269 1.86026L62.1232 8.59664C64.6256 11.0769 64.6256 15.0982 62.1233 17.5784C59.621 20.0587 55.564 20.0587 53.0617 17.5784L50.7963 15.333L47.9645 18.1398C45.8492 20.2365 42.6229 20.5608 40.1639 19.1126C39.4034 18.6647 39.41 17.6371 40.0356 17.0171C40.6612 16.397 41.6823 16.4504 42.5314 16.6965C43.6188 17.0118 44.8415 16.7444 45.6991 15.8944L48.6118 13.0073C49.8182 11.8115 51.7743 11.8115 52.9807 13.0073L55.3271 15.333C56.5782 16.5731 58.6067 16.5731 59.8579 15.333C61.109 14.0929 61.109 12.0822 59.8579 10.8421L53.0616 4.10572C51.8104 2.86562 49.7819 2.86562 48.5308 4.10576L34.9384 17.5785C32.436 20.0588 28.3789 20.0588 25.8766 17.5784Z" fill="black"/>
</svg>
